<?xml version="1.0" standalone="no"?>
<!DOCTYPE svg PUBLIC "-//W3C//DTD SVG 20010904//EN"
 "http://www.w3.org/TR/2001/REC-SVG-20010904/DTD/svg10.dtd">
<svg version="1.0" xmlns="http://www.w3.org/2000/svg"
 width="1000.000000pt" height="1000.000000pt" viewBox="0 0 1000.000000 1000.000000"
 preserveAspectRatio="xMidYMid meet">
<metadata>
Created by potrace 1.14, written by Peter Selinger 2001-2017
</metadata>
<g transform="translate(0.000000,1000.000000) scale(0.100000,-0.100000)"
fill="#000000" stroke="none">
<path d="M5958 8684 c-54 -7 -107 -18 -117 -24 -11 -5 -29 -10 -40 -10 -31 0
-97 -65 -106 -103 -4 -17 -8 -34 -9 -37 -1 -3 -6 -12 -11 -20 -8 -12 -12 -99
-15 -282 0 -21 -5 -28 -19 -28 -13 0 -21 9 -25 28 -17 87 -24 153 -27 277 -2
94 -11 125 -41 144 -21 13 -94 16 -153 6 -156 -27 -221 -44 -290 -74 -66 -28
-76 -36 -94 -69 -14 -26 -33 -28 -55 -7 -8 8 -20 15 -26 15 -6 0 -20 9 -32 19
-41 39 -136 37 -172 -3 -43 -46 -55 -89 -50 -173 11 -175 10 -187 -20 -203
-21 -11 -27 -10 -42 4 -19 19 -21 47 -9 119 10 60 -8 121 -47 160 -27 26 -29
27 -63 12 -20 -8 -42 -20 -50 -27 -7 -7 -34 -31 -59 -53 -25 -22 -46 -44 -46
-49 0 -5 -7 -14 -15 -20 -8 -6 -23 -33 -33 -60 -15 -42 -24 -52 -77 -82 -33
-18 -66 -34 -73 -34 -7 0 -25 -11 -40 -25 -26 -24 -26 -26 -28 -175 -3 -192
-13 -290 -36 -337 -11 -22 -12 -22 -51 17 -41 42 -71 49 -110 29 -11 -7 -47
-12 -79 -13 -44 0 -64 5 -87 22 -17 12 -33 22 -36 22 -4 0 -13 7 -21 15 -16
16 -71 20 -91 7 -24 -15 -34 -62 -22 -105 14 -55 32 -97 41 -97 5 0 8 -7 8
-15 0 -25 -13 -17 -87 55 -40 39 -77 70 -82 70 -5 0 -11 4 -13 8 -7 16 -86 55
-138 68 -99 24 -196 12 -267 -32 -33 -21 -93 -84 -93 -99 0 -6 -9 -18 -20 -28
-11 -9 -20 -25 -20 -35 0 -9 -11 -29 -24 -43 -22 -23 -29 -26 -64 -19 -59 10
-104 2 -127 -23 -32 -34 -34 -50 -14 -93 10 -21 18 -44 19 -50 0 -11 -30 -23
-75 -29 -45 -7 -103 -15 -155 -21 -30 -3 -65 -12 -77 -20 -12 -8 -27 -14 -32
-14 -25 0 -162 -160 -215 -253 -39 -68 -41 -98 -11 -160 15 -30 44 -73 66 -97
21 -23 39 -46 39 -51 0 -12 -24 -11 -35 0 -26 26 -110 61 -146 61 l-40 0 2
-50 c2 -27 1 -51 -2 -53 -2 -2 -34 -18 -71 -36 -42 -21 -78 -48 -95 -70 -15
-20 -31 -37 -35 -39 -4 -2 -8 -9 -8 -15 0 -6 -6 -18 -14 -26 -7 -9 -28 -44
-47 -78 -18 -35 -36 -63 -41 -63 -4 0 -8 -9 -8 -19 0 -11 -4 -22 -8 -25 -5 -3
-32 -51 -60 -108 -122 -248 -134 -293 -87 -344 14 -15 25 -30 25 -33 0 -4 20
-17 45 -31 25 -14 45 -28 45 -32 0 -4 16 -14 35 -23 19 -9 45 -27 58 -39 14
-13 32 -26 41 -29 9 -4 16 -13 16 -22 0 -8 4 -15 8 -15 12 0 33 -50 27 -61 -4
-5 -22 -9 -41 -9 -30 0 -98 30 -222 100 -66 37 -198 49 -243 23 -29 -17 -31
-21 -26 -64 5 -41 2 -51 -23 -80 -16 -19 -34 -39 -40 -46 -5 -7 -10 -42 -10
-78 0 -94 -26 -145 -126 -249 -37 -39 -94 -114 -94 -125 0 -6 -3 -11 -8 -11
-9 0 -41 -62 -78 -150 -24 -56 -27 -78 -26 -155 1 -49 3 -101 6 -114 7 -33
-15 -71 -63 -106 -22 -16 -41 -33 -41 -37 0 -5 -7 -8 -15 -8 -7 0 -18 -6 -22
-13 -4 -6 -26 -25 -48 -42 -95 -70 -208 -188 -248 -256 -29 -53 -31 -67 -13
-149 13 -60 -58 -284 -125 -393 -16 -26 -29 -51 -29 -55 0 -4 -8 -15 -17 -24
-10 -8 -27 -27 -38 -41 -11 -15 -25 -26 -32 -27 -7 0 -17 -9 -23 -20 -6 -11
-16 -20 -22 -20 -19 0 -83 -74 -100 -115 -31 -75 -45 -326 -23 -420 13 -56 41
-105 60 -105 7 0 15 -4 17 -10 2 -5 17 -12 33 -16 39 -7 107 42 185 134 118
140 215 242 230 242 5 0 10 4 10 9 0 15 92 53 113 47 39 -10 84 22 111 80 14
30 26 60 26 68 0 31 54 57 75 37 12 -10 112 -45 140 -48 11 -1 38 5 60 15 39
16 185 99 195 111 3 3 25 17 50 30 25 14 47 27 50 31 3 3 26 19 52 35 27 17
48 33 48 36 0 8 -37 78 -65 124 -81 130 -93 235 -27 235 30 0 92 -19 147 -44
37 -17 62 -28 142 -61 60 -24 137 -33 158 -17 21 15 35 59 37 117 l3 60 86 -4
c116 -4 155 17 184 99 36 102 -4 241 -116 408 -38 56 -59 98 -53 104 9 10 53
-4 73 -23 11 -10 23 -19 27 -19 8 0 119 -112 149 -151 37 -47 69 -61 144 -61
71 0 91 8 156 61 47 38 75 82 75 118 0 18 -3 33 -8 33 -4 0 -14 15 -22 33 -7
17 -18 37 -22 42 -25 29 -88 127 -88 135 0 6 -4 10 -8 10 -4 0 -16 15 -27 33
-10 17 -22 34 -26 37 -15 11 -39 84 -30 93 12 12 73 -28 161 -106 96 -84 168
-127 214 -127 43 0 104 46 268 202 92 87 172 128 303 153 22 5 45 10 50 11 6
2 30 9 55 15 101 27 131 43 155 84 12 22 26 53 29 69 8 34 29 57 53 57 20 1
90 -24 134 -46 15 -8 52 -15 82 -15 48 0 57 3 72 27 20 30 16 112 -8 180 -8
21 -20 54 -26 73 -7 19 -22 58 -33 85 -24 61 -38 105 -33 105 2 0 14 -17 26
-37 13 -21 26 -40 29 -43 4 -3 15 -20 25 -37 11 -18 23 -33 27 -33 4 0 8 -5 8
-11 0 -6 6 -17 13 -24 6 -8 23 -30 37 -50 14 -20 40 -53 58 -72 17 -19 32 -36
32 -38 0 -8 51 -55 60 -55 4 0 10 -3 12 -7 8 -19 88 -63 141 -78 71 -20 117
-16 212 21 93 37 199 43 278 16 31 -10 88 -20 127 -21 62 -2 77 1 118 25 75
44 87 68 65 135 -14 44 -46 120 -63 149 -12 21 -100 191 -139 270 -18 36 -37
72 -42 80 -5 8 -12 22 -15 30 -3 8 -16 38 -29 65 -77 164 -90 200 -86 243 2
24 34 11 72 -30 22 -24 39 -46 39 -51 0 -4 16 -30 35 -57 19 -27 35 -52 35
-55 0 -3 15 -27 33 -53 18 -26 38 -58 45 -72 11 -24 28 -51 45 -74 18 -25 54
-85 76 -126 14 -25 30 -49 38 -53 7 -4 13 -14 13 -21 0 -7 9 -21 20 -31 11
-10 20 -24 20 -32 0 -7 7 -16 15 -19 8 -4 15 -12 15 -19 0 -8 9 -17 20 -20 11
-3 20 -11 20 -16 0 -15 57 -10 98 8 76 33 114 129 107 272 -2 48 -6 97 -10
111 -3 14 -9 43 -12 65 -3 22 -14 64 -24 93 -10 29 -19 60 -19 69 0 15 1 15
18 0 9 -9 26 -33 37 -53 20 -38 80 -103 125 -136 16 -12 42 -18 80 -18 46 0
61 5 88 28 18 15 34 37 37 50 6 33 -27 147 -63 221 -18 34 -32 69 -32 77 0 8
-4 14 -9 14 -5 0 -16 17 -25 38 -8 20 -22 48 -30 62 -8 14 -27 53 -42 88 -16
34 -32 62 -36 62 -4 0 -8 9 -8 20 0 11 -4 28 -10 38 -23 40 -83 222 -76 229 5
5 56 -79 56 -93 0 -8 4 -14 9 -14 5 0 14 -12 20 -27 5 -16 17 -39 25 -53 8
-14 17 -32 20 -40 4 -8 24 -46 46 -85 22 -38 56 -104 77 -145 20 -41 40 -76
45 -78 4 -2 8 -8 8 -14 0 -14 50 -117 59 -123 4 -2 19 6 34 18 14 12 36 30 49
39 114 86 232 207 258 263 39 83 34 135 -30 345 -10 36 -26 90 -35 120 -8 30
-24 86 -35 124 -26 88 -26 110 -2 95 10 -6 24 -24 31 -40 7 -15 23 -44 37 -64
14 -20 44 -74 68 -118 23 -45 47 -91 53 -102 19 -35 62 -118 96 -188 31 -63
35 -68 50 -53 8 9 20 16 26 16 5 0 14 6 18 13 4 7 29 28 56 47 26 18 47 37 47
42 0 4 5 8 11 8 7 0 22 10 34 23 12 12 40 39 63 59 23 21 42 42 42 47 0 5 7
11 15 15 8 3 15 12 15 20 0 8 4 16 8 18 18 7 60 97 71 153 11 54 10 69 -8 145
-21 84 -21 102 -1 232 12 81 14 91 22 103 3 6 9 25 13 44 15 69 28 10 40 -184
11 -171 42 -315 67 -315 5 0 8 -7 8 -15 0 -26 36 -52 88 -65 96 -23 294 26
416 103 75 47 126 123 163 240 9 28 28 20 59 -25 58 -87 75 -95 140 -62 88 45
167 74 203 74 53 1 197 35 229 55 36 23 89 80 97 105 3 11 11 20 16 20 5 0 9
7 9 15 0 9 9 35 20 57 11 23 20 48 20 57 0 13 11 49 60 201 12 35 25 56 35 58
16 4 17 -5 13 -86 -5 -93 8 -151 34 -153 27 -3 53 4 72 17 11 8 28 14 38 14 9
0 23 6 30 13 8 6 47 30 88 51 41 22 86 48 99 58 13 10 30 18 37 18 7 0 19 6
26 13 8 6 24 18 37 25 13 8 40 23 60 34 20 12 74 41 121 64 l85 44 132 -2
c138 -2 143 -1 263 57 110 52 203 132 215 184 13 60 -70 150 -205 219 -93 47
-170 68 -280 77 -101 7 -153 13 -200 24 -70 15 -248 19 -455 10 l-100 -4 -59
38 c-53 35 -64 38 -120 37 -106 -3 -113 -1 -152 35 -63 56 -116 58 -184 5 -19
-15 -50 -35 -67 -44 -31 -15 -35 -15 -58 0 -14 9 -25 21 -25 28 0 6 -21 26
-46 45 -55 42 -120 56 -189 40 -64 -15 -133 -18 -165 -9 -137 40 -163 42 -487
38 -175 -2 -365 -1 -423 2 -156 8 -188 2 -252 -48 -30 -23 -61 -42 -69 -42
-16 1 -49 24 -49 35 0 11 -44 51 -65 59 -35 13 -152 13 -247 0z m-3008 -1654
c21 -29 38 -90 26 -90 -12 0 -66 84 -66 102 0 27 16 22 40 -12z m1426 -1357
c7 -21 11 -39 9 -42 -6 -6 -44 42 -45 56 0 6 -7 18 -15 26 -7 8 -17 28 -20 43
-6 29 -6 29 26 -9 18 -20 38 -54 45 -74z m-2642 -1053 c50 -22 64 -45 37 -60
-19 -9 -41 -5 -113 22 -36 13 -43 36 -15 48 33 13 44 12 91 -10z"/>
<path d="M9828 7752 c-16 -2 -28 -8 -28 -13 0 -5 -6 -9 -12 -9 -18 -1 -102
-81 -183 -175 -38 -44 -72 -81 -77 -83 -4 -2 -8 -8 -8 -13 0 -8 -47 -73 -90
-126 -5 -7 -17 -28 -27 -47 -9 -20 -20 -36 -24 -36 -8 0 -23 -65 -24 -104 0
-27 -4 -31 -49 -42 -27 -7 -79 -16 -115 -20 -62 -6 -134 -28 -191 -59 -14 -7
-43 -23 -65 -34 -39 -20 -101 -75 -176 -157 -37 -39 -37 -40 -118 -42 -65 -1
-91 -7 -133 -28 -65 -32 -137 -85 -138 -100 0 -7 -7 -14 -15 -18 -8 -3 -15
-13 -15 -23 0 -10 -13 -32 -29 -49 -25 -26 -40 -32 -92 -38 -35 -4 -79 -14
-97 -22 -19 -8 -41 -14 -49 -14 -20 0 -94 -35 -120 -57 -11 -10 -31 -25 -43
-33 -23 -16 -70 -82 -70 -100 0 -5 11 -33 25 -62 18 -37 22 -55 14 -62 -13
-14 -132 -11 -185 3 -86 23 -250 -54 -369 -174 -78 -78 -88 -105 -62 -168 17
-41 103 -127 126 -127 6 0 14 -6 18 -13 4 -6 27 -25 51 -41 23 -16 41 -31 38
-33 -5 -6 -86 21 -86 29 0 3 -16 12 -35 18 -19 6 -35 15 -35 18 0 4 -20 18
-44 31 l-43 24 -32 -22 c-45 -32 -58 -57 -60 -117 l-1 -37 -80 7 c-44 3 -91 4
-105 0 -25 -6 -25 -8 -25 -105 l0 -99 -40 -25 c-22 -14 -45 -25 -51 -25 -6 0
-23 -8 -37 -19 -15 -10 -36 -21 -48 -25 -40 -12 -114 -114 -114 -158 0 -30
-40 -42 -140 -43 -81 0 -102 -4 -145 -25 -58 -30 -175 -142 -175 -170 0 -10
-4 -22 -10 -25 -19 -12 -6 -82 23 -120 4 -5 25 -33 47 -61 22 -29 40 -56 40
-62 0 -6 3 -12 8 -14 11 -5 62 -76 62 -87 0 -5 6 -14 13 -18 15 -10 50 -63 45
-69 -3 -2 -45 36 -94 84 -106 105 -176 162 -196 162 -8 0 -18 3 -22 7 -19 20
-69 7 -166 -40 -58 -29 -106 -55 -108 -59 -2 -5 -12 -8 -23 -8 -10 0 -19 -4
-19 -9 0 -5 -14 -15 -30 -23 l-30 -15 77 -102 c43 -57 83 -110 88 -119 6 -9
15 -20 21 -24 7 -4 26 -30 44 -58 18 -27 36 -50 41 -50 5 0 9 -5 9 -11 0 -7
16 -31 35 -55 19 -23 35 -47 35 -53 0 -5 6 -14 13 -18 15 -9 52 -82 50 -100 0
-7 -1 -19 -2 -27 -4 -43 -84 -15 -104 37 -3 9 -11 17 -17 17 -5 0 -10 4 -10
10 0 8 -30 58 -57 96 -5 5 -13 19 -19 30 -31 55 -40 70 -56 88 -10 11 -20 28
-24 38 -3 10 -10 18 -15 18 -5 0 -9 5 -9 11 0 12 -97 135 -131 165 -74 66
-161 93 -189 59 -7 -8 -16 -15 -21 -15 -10 0 -159 -145 -159 -154 0 -4 -9 -19
-19 -34 -11 -15 -22 -49 -26 -76 -4 -27 -11 -60 -16 -74 l-9 -24 -20 25 c-11
14 -20 28 -20 31 0 8 -14 26 -47 62 -42 45 -124 28 -230 -50 -23 -17 -42 -36
-43 -43 0 -7 -6 -16 -13 -20 -22 -13 -55 -84 -72 -156 -18 -77 -18 -174 1
-256 19 -80 19 -217 -1 -225 -52 -20 -85 53 -101 224 -9 98 -12 128 -19 210
-9 107 -11 117 -35 154 -25 41 -36 46 -110 46 -76 0 -148 -24 -316 -105 -197
-96 -237 -109 -296 -94 -39 9 -56 8 -98 -6 -27 -9 -50 -20 -50 -24 0 -4 -15
-15 -32 -25 -74 -43 -178 -177 -178 -229 0 -7 -7 -22 -15 -33 -14 -18 -15 -18
-49 21 -32 37 -38 39 -83 37 -28 -1 -58 -9 -73 -20 -14 -11 -35 -22 -48 -26
-12 -4 -22 -12 -22 -17 0 -5 -4 -9 -10 -9 -10 0 -39 -21 -77 -57 -13 -13 -26
-23 -29 -23 -11 0 -133 -130 -163 -175 -18 -27 -34 -66 -38 -93 -6 -45 -20
-66 -61 -89 -51 -30 -51 -22 -8 142 20 79 21 93 9 118 -16 31 -31 33 -81 10
-56 -25 -120 -77 -235 -188 -82 -79 -191 -176 -213 -188 -8 -4 -26 -19 -41
-33 -15 -14 -40 -33 -55 -42 -16 -9 -28 -20 -28 -24 0 -4 -9 -8 -19 -8 -11 0
-21 -4 -23 -8 -1 -4 -25 -23 -53 -42 -66 -46 -68 -48 -97 -100 -15 -28 -28
-70 -32 -110 -19 -180 -25 -248 -26 -275 l0 -30 -19 35 c-10 19 -22 50 -25 67
-4 18 -12 33 -17 33 -5 0 -9 7 -9 16 0 9 -6 30 -14 47 -8 18 -22 48 -31 67
-48 107 -63 115 -190 114 -55 -1 -128 -9 -163 -17 -63 -15 -89 -34 -133 -98
-18 -26 -5 -25 -214 -19 -76 3 -109 -1 -139 -13 -48 -21 -100 -22 -130 -2 -17
11 -33 14 -52 8 -16 -4 -31 -8 -34 -8 -3 -1 -12 -4 -20 -8 -8 -3 -42 -8 -75
-11 -183 -19 -231 -33 -265 -74 -32 -38 -70 -142 -70 -190 0 -39 45 -76 115
-93 28 -6 58 -16 68 -21 10 -5 44 -14 75 -19 31 -6 62 -11 67 -13 16 -5 95
-15 165 -22 36 -3 79 -8 95 -10 17 -2 75 -5 130 -8 158 -7 224 -17 309 -48 97
-34 118 -35 173 -2 52 30 74 26 103 -21 30 -48 114 -122 147 -128 16 -3 48
-10 73 -16 25 -5 72 -15 105 -20 85 -15 246 -64 291 -90 17 -9 98 -47 224
-103 25 -11 52 -24 60 -28 28 -14 125 -39 165 -43 27 -3 61 4 105 21 92 35
147 39 192 12 20 -11 39 -27 42 -35 3 -8 10 -15 16 -15 6 0 23 -12 38 -28 93
-93 188 -128 248 -92 35 22 47 54 40 106 -3 16 0 37 5 45 5 8 9 9 9 3 0 -6 10
-22 23 -36 82 -93 97 -108 107 -108 5 0 10 -4 10 -9 0 -5 12 -14 28 -20 15 -5
38 -17 52 -24 68 -40 110 -50 205 -49 52 0 103 5 113 11 21 11 99 8 177 -8 27
-5 53 -7 57 -5 3 2 9 0 12 -5 3 -5 30 -14 58 -21 29 -6 73 -18 98 -25 97 -28
248 -49 350 -48 88 1 116 5 175 28 115 43 142 48 250 38 174 -14 280 -9 339
18 101 47 119 85 87 184 -23 72 -107 254 -121 265 -10 7 -39 108 -33 114 14
14 94 -98 157 -219 54 -102 178 -219 246 -230 143 -24 219 69 207 254 -3 47
-9 97 -12 111 -3 14 -8 43 -10 64 -5 33 -3 37 9 27 8 -7 27 -36 42 -64 14 -29
29 -54 33 -57 4 -3 15 -18 25 -33 32 -51 88 -107 123 -124 59 -28 107 -18 213
42 45 26 110 89 135 132 33 55 32 98 -6 241 -17 64 -34 128 -36 142 -5 24 -5
25 11 5 8 -11 16 -25 16 -31 0 -6 9 -19 20 -29 11 -10 20 -22 20 -27 0 -11 63
-92 99 -128 23 -22 33 -25 96 -24 72 2 75 3 270 108 28 15 49 33 101 86 33 33
50 62 63 105 20 64 44 81 74 51 9 -9 20 -16 25 -16 5 0 17 -9 27 -20 14 -15
31 -20 71 -20 42 0 68 8 131 41 43 23 80 45 83 48 3 4 22 20 42 35 20 15 51
49 67 75 28 42 31 56 31 123 0 53 -7 94 -24 144 -36 101 -50 138 -58 150 -4 7
-33 61 -64 120 -31 60 -63 121 -71 136 -8 15 -18 30 -24 33 -12 8 -12 25 1 25
6 0 14 -8 17 -17 4 -10 16 -30 27 -44 12 -14 28 -36 36 -49 8 -12 23 -33 33
-45 9 -13 17 -26 17 -29 0 -7 66 -96 95 -128 8 -10 15 -22 15 -27 0 -5 33 -44
74 -86 69 -71 78 -77 116 -78 49 -1 73 22 109 105 13 29 32 72 42 96 10 23 19
50 19 60 0 9 7 30 15 46 8 15 15 35 15 42 0 18 48 114 57 114 7 0 76 -51 84
-62 3 -5 26 -9 51 -10 70 -1 108 46 134 167 19 88 5 317 -25 410 -5 17 -12 48
-15 70 l-5 40 39 -45 c22 -25 40 -48 40 -52 0 -12 34 -44 53 -51 22 -8 48 31
72 108 10 33 26 83 35 110 10 28 25 75 33 105 8 30 23 82 32 115 64 222 75
354 38 465 -10 30 -21 57 -24 60 -4 3 -21 35 -39 72 -17 37 -35 70 -40 73 -4
3 -13 19 -19 37 l-11 31 40 -42 c22 -23 40 -44 40 -46 0 -4 141 -145 167 -166
19 -16 22 -15 35 0 8 10 17 26 21 37 3 10 17 51 32 89 15 39 30 86 34 106 4
19 11 42 16 49 5 7 12 30 16 49 3 20 14 56 22 81 9 25 32 99 52 165 19 66 40
132 45 148 6 15 15 42 22 60 18 53 58 158 80 212 37 92 41 134 36 341 -1 43 3
55 29 85 17 19 48 59 68 89 43 64 145 271 145 294 0 9 7 28 17 42 10 15 18 54
21 99 5 74 -7 121 -56 222 -20 40 -13 48 24 28 47 -24 69 -19 111 29 61 69
101 158 184 411 72 222 88 325 66 435 -17 86 -70 124 -159 112z m-2934 -2817
c27 -17 61 -40 76 -52 15 -13 31 -23 34 -23 3 0 14 -8 24 -17 10 -10 42 -38
70 -63 49 -42 92 -99 92 -121 0 -20 -48 -7 -99 26 -29 19 -55 35 -57 35 -3 0
-10 5 -17 10 -7 6 -41 33 -77 61 -36 28 -66 55 -68 60 -2 5 -7 9 -12 9 -11 0
-82 71 -98 100 -11 18 -11 24 -2 30 14 9 59 -10 134 -55z m695 -1699 c-3 -3
-11 5 -18 17 -13 21 -12 21 5 5 10 -10 16 -20 13 -22z m-638 -113 c31 -33 99
-128 99 -137 0 -4 8 -15 18 -26 9 -10 26 -36 37 -57 11 -21 28 -47 38 -57 9
-11 17 -28 17 -38 0 -10 4 -18 8 -18 15 0 132 -229 132 -259 0 -25 -12 -27
-30 -6 -7 8 -19 15 -26 15 -8 0 -14 4 -14 8 0 4 -16 23 -35 42 -19 19 -35 41
-35 48 0 6 -4 12 -8 12 -5 0 -17 16 -28 35 -10 19 -21 35 -25 35 -4 0 -9 8
-13 18 -3 9 -24 49 -46 87 -76 131 -130 254 -130 294 0 38 8 39 41 4z m-2458
-1030 c21 -20 22 -47 1 -67 -22 -23 -28 -21 -59 24 -33 48 -28 75 13 65 15 -3
35 -14 45 -22z"/>
</g>
</svg>
